<svg width="1412" height="699" viewBox="0 0 1412 699" fill="none" xmlns="http://www.w3.org/2000/svg">
<path opacity="0.5" d="M441.054 0.229492C395.467 115.397 345.593 230.564 291.432 345.731C237.263 460.898 187.337 576.068 141.654 691.241M472.776 0.229492C432.918 115.397 388.219 230.564 338.68 345.731C289.125 460.898 244.371 576.068 204.417 691.241M504.498 0.229492C469.843 115.397 430.316 230.564 385.917 345.731C341.509 460.898 301.934 576.068 267.192 691.241M536.208 0.229492C506.414 115.397 472.063 230.564 433.153 345.731C394.236 460.898 359.844 576.068 329.979 691.241M567.93 0.229492C542.766 115.397 513.59 230.564 480.402 345.731C447.189 460.898 417.973 576.068 392.754 691.241M599.652 0.229492C578.974 115.397 554.97 230.564 527.638 345.731C500.283 460.898 476.246 576.068 455.528 691.241M631.374 0.229492C615.095 115.397 596.262 230.564 574.875 345.731C553.472 460.898 534.614 576.068 518.303 691.241M663.096 0.229492C651.168 115.397 637.506 230.564 622.111 345.731C606.708 460.898 593.031 576.068 581.078 691.241M694.83 0.229492C687.205 115.397 678.71 230.564 669.347 345.731C659.977 460.898 651.474 576.068 643.841 691.241M726.552 0.229492C723.23 115.397 719.907 230.564 716.584 345.731C713.261 460.898 709.938 576.068 706.616 691.241M758.286 0.229492C759.259 115.397 761.103 230.564 763.821 345.731C766.538 460.898 768.39 576.068 769.379 691.241M790.009 0.229492C795.3 115.397 802.316 230.564 811.057 345.731C819.806 460.898 826.838 576.068 832.153 691.241M821.743 0.229492C831.368 115.397 843.552 230.564 858.293 345.731C873.051 460.898 885.258 576.068 894.916 691.241M853.465 0.229492C867.489 115.397 884.844 230.564 905.53 345.731C926.232 460.898 943.619 576.068 957.691 691.241M885.187 0.229492C903.697 115.397 926.224 230.564 952.766 345.731C979.333 460.898 1001.9 576.068 1020.47 691.241M916.897 0.229492C940.045 115.397 967.751 230.564 1000.01 345.731C1032.29 460.898 1060.03 576.068 1083.25 691.241M948.619 0.229492C976.62 115.397 1009.5 230.564 1047.25 345.731C1085.01 460.898 1117.94 576.068 1146.03 691.241M980.329 0.229492C1013.55 115.397 1051.6 230.564 1094.49 345.731C1137.39 460.898 1175.5 576.068 1208.81 691.241M1012.05 0.229492C1050.99 115.397 1094.22 230.564 1141.74 345.731C1189.26 460.898 1232.54 576.068 1271.58 691.241M1104.61 45.4303C975.389 45.4303 848.847 45.4303 724.987 45.4303C601.134 45.4303 474.553 45.4303 345.242 45.4303M1123.04 84.2581C985.995 84.2581 852.935 84.2581 723.863 84.2581C594.776 84.2581 461.668 84.2581 324.54 84.2581M1141.53 123.086C997.409 123.086 857.807 123.086 722.728 123.086C587.64 123.086 447.998 123.086 303.803 123.086M1160.04 161.914C1009.44 161.914 863.294 161.914 721.592 161.914C579.883 161.914 433.699 161.914 283.041 161.914M1178.55 200.742C1021.92 200.742 869.218 200.742 720.457 200.742C571.687 200.742 418.962 200.742 262.279 200.742M1197.05 239.569C1034.71 239.569 875.461 239.569 719.321 239.569C563.173 239.569 403.905 239.569 241.518 239.569M1215.57 278.397C1047.71 278.397 881.912 278.397 718.186 278.397C554.444 278.397 388.634 278.397 220.756 278.397M1234.07 317.225C1060.83 317.225 888.486 317.225 717.038 317.225C545.599 317.225 373.251 317.225 199.995 317.225M1252.58 356.053C1074.01 356.053 895.111 356.053 715.903 356.053C536.702 356.053 357.812 356.053 179.233 356.053M1271.1 394.881C1087.16 394.881 901.713 394.881 714.767 394.881C527.821 394.881 342.389 394.881 158.472 394.881M1289.6 433.708C1100.22 433.708 908.235 433.708 713.632 433.708C519.028 433.708 327.058 433.708 137.722 433.708M1308.12 472.536C1113.13 472.536 914.59 472.536 712.496 472.536C510.402 472.536 311.891 472.536 116.96 472.536M1326.62 511.364C1125.78 511.364 920.69 511.364 711.361 511.364C502.032 511.364 296.978 511.364 96.1988 511.364M1345.12 550.192C1138.04 550.192 926.407 550.192 710.225 550.192C494.043 550.192 282.447 550.192 75.4372 550.192M1363.62 589.02C1149.78 589.02 931.598 589.02 709.09 589.02C486.581 589.02 268.447 589.02 54.6875 589.02M1382.1 627.848C1160.8 627.848 936.089 627.848 707.954 627.848C479.82 627.848 255.152 627.848 33.9499 627.848M1411.45 697.75C1176.97 697.091 941.806 696.755 705.958 696.743C470.102 696.761 234.968 697.109 0.554443 697.787" stroke="url(#paint0_radial_12_799)" stroke-width="0.822543"/>
<defs>
<radialGradient id="paint0_radial_12_799" cx="0" cy="0" r="1" gradientUnits="userSpaceOnUse" gradientTransform="translate(727.787 352.87) rotate(90) scale(352.641 575.113)">
<stop stop-color="#FF8372" stop-opacity="0.63"/>
<stop offset="0.421875" stop-color="#D54390" stop-opacity="0.43"/>
<stop offset="1" stop-opacity="0"/>
</radialGradient>
</defs>
</svg>
