<svg width="1682" height="3203" viewBox="0 0 1682 3203" fill="none" xmlns="http://www.w3.org/2000/svg">
<g opacity="0.52" clip-path="url(#clip0_0_65)">
<g style="mix-blend-mode:lighten">
<path fill-rule="evenodd" clip-rule="evenodd" d="M684.231 87.0031L686.865 88.4264C686.924 88.4586 686.973 88.5058 687.007 88.5631C687.041 88.6204 687.059 88.6857 687.059 88.7523C687.059 88.8188 687.041 88.8842 687.007 88.9415C686.973 88.9988 686.924 89.046 686.865 89.0781L684.231 90.5024C684.168 90.5367 684.116 90.5878 684.081 90.6497L682.641 93.2527C682.609 93.3113 682.561 93.3601 682.503 93.3942C682.445 93.4282 682.379 93.4462 682.311 93.4462C682.244 93.4462 682.178 93.4282 682.12 93.3942C682.062 93.3601 682.014 93.3113 681.982 93.2527L680.54 90.6507C680.506 90.587 680.454 90.5346 680.39 90.4996L677.757 89.0781C677.698 89.046 677.649 88.9988 677.615 88.9415C677.58 88.8842 677.562 88.8188 677.562 88.7523C677.562 88.6857 677.58 88.6204 677.615 88.5631C677.649 88.5058 677.698 88.4586 677.757 88.4264L680.39 87.0021C680.454 86.968 680.506 86.9165 680.54 86.8539L681.981 84.2527C682.013 84.1942 682.061 84.1454 682.119 84.1113C682.177 84.0773 682.243 84.0593 682.31 84.0593C682.378 84.0593 682.444 84.0773 682.502 84.1113C682.56 84.1454 682.608 84.1942 682.64 84.2527L684.081 86.8539C684.116 86.9171 684.167 86.9672 684.231 87.0021" fill="#D15D64"/>
</g>
<g style="mix-blend-mode:lighten">
<path fill-rule="evenodd" clip-rule="evenodd" d="M226.486 157.465L227.786 158.168C227.845 158.2 227.895 158.248 227.929 158.305C227.963 158.363 227.982 158.428 227.982 158.495C227.982 158.562 227.963 158.627 227.929 158.685C227.895 158.742 227.845 158.79 227.786 158.822L226.486 159.524C226.423 159.558 226.372 159.61 226.337 159.672L225.627 160.956C225.595 161.015 225.547 161.064 225.489 161.098C225.43 161.132 225.364 161.15 225.296 161.15C225.229 161.15 225.162 161.132 225.104 161.098C225.046 161.064 224.998 161.015 224.966 160.956L224.255 159.672C224.221 159.609 224.169 159.558 224.105 159.524L222.806 158.822C222.746 158.79 222.697 158.742 222.663 158.685C222.628 158.627 222.61 158.562 222.61 158.495C222.61 158.428 222.628 158.363 222.663 158.305C222.697 158.248 222.746 158.2 222.806 158.168L224.105 157.466C224.169 157.432 224.221 157.381 224.255 157.319L224.966 156.035C224.998 155.976 225.046 155.927 225.104 155.893C225.162 155.859 225.229 155.842 225.296 155.842C225.364 155.842 225.43 155.859 225.488 155.893C225.547 155.927 225.594 155.976 225.627 156.035L226.338 157.319C226.373 157.381 226.426 157.432 226.488 157.466" fill="#FCD05C"/>
</g>
<path fill-rule="evenodd" clip-rule="evenodd" d="M389.366 102.004L387.959 103.393L389.366 102.004ZM393.187 98.2266L391.782 99.6168L393.187 98.2266ZM389.434 102.158C389.598 102.321 389.794 102.45 390.008 102.538C390.223 102.626 390.453 102.671 390.686 102.671C390.918 102.671 391.149 102.626 391.364 102.538C391.578 102.45 391.774 102.321 391.938 102.158C392.102 101.996 392.233 101.803 392.322 101.591C392.411 101.378 392.457 101.151 392.457 100.921C392.457 100.691 392.411 100.464 392.322 100.252C392.233 100.039 392.102 99.8464 391.938 99.6839C391.774 99.5214 391.578 99.3925 391.364 99.3046C391.149 99.2167 390.918 99.1714 390.686 99.1714C390.453 99.1714 390.223 99.2167 390.008 99.3046C389.794 99.3925 389.598 99.5214 389.434 99.6839C389.269 99.8464 389.139 100.039 389.05 100.252C388.961 100.464 388.915 100.691 388.915 100.921C388.915 101.151 388.961 101.378 389.05 101.591C389.139 101.803 389.269 101.996 389.434 102.158V102.158Z" stroke="#7B63AB" stroke-width="1.097" stroke-linecap="round" stroke-linejoin="round"/>
<g style="mix-blend-mode:lighten">
<path fill-rule="evenodd" clip-rule="evenodd" d="M917.441 130.449L920.075 131.873C920.134 131.905 920.184 131.952 920.218 132.009C920.252 132.067 920.27 132.132 920.27 132.199C920.27 132.265 920.252 132.331 920.218 132.388C920.184 132.445 920.134 132.492 920.075 132.524L917.441 133.948C917.378 133.983 917.326 134.036 917.292 134.099L915.852 136.7C915.82 136.759 915.772 136.807 915.714 136.841C915.656 136.875 915.59 136.893 915.522 136.893C915.455 136.893 915.388 136.875 915.33 136.841C915.272 136.807 915.225 136.759 915.192 136.7L913.751 134.097C913.716 134.034 913.664 133.983 913.601 133.949L910.968 132.527C910.909 132.495 910.86 132.448 910.825 132.391C910.791 132.333 910.773 132.268 910.773 132.201C910.773 132.135 910.791 132.07 910.825 132.012C910.86 131.955 910.909 131.908 910.968 131.876L913.601 130.451C913.664 130.417 913.716 130.366 913.751 130.304L915.191 127.702C915.224 127.643 915.271 127.595 915.329 127.561C915.387 127.526 915.454 127.509 915.521 127.509C915.589 127.509 915.655 127.526 915.713 127.561C915.771 127.595 915.819 127.643 915.851 127.702L917.292 130.304C917.327 130.366 917.378 130.417 917.441 130.451" fill="#D15D64"/>
</g>
<g style="mix-blend-mode:lighten">
<path fill-rule="evenodd" clip-rule="evenodd" d="M1092.35 167.285L1094.98 168.708C1095.04 168.74 1095.09 168.787 1095.13 168.845C1095.16 168.902 1095.18 168.967 1095.18 169.034C1095.18 169.1 1095.16 169.166 1095.13 169.223C1095.09 169.28 1095.04 169.327 1094.98 169.36L1092.35 170.784C1092.29 170.818 1092.24 170.869 1092.2 170.931L1090.76 173.534C1090.73 173.593 1090.68 173.643 1090.62 173.677C1090.56 173.711 1090.5 173.729 1090.43 173.729C1090.36 173.729 1090.3 173.711 1090.24 173.677C1090.18 173.643 1090.13 173.593 1090.1 173.534L1088.66 170.931C1088.62 170.869 1088.57 170.818 1088.51 170.784L1085.88 169.361C1085.82 169.329 1085.77 169.281 1085.73 169.224C1085.7 169.167 1085.68 169.101 1085.68 169.035C1085.68 168.968 1085.7 168.903 1085.73 168.845C1085.77 168.788 1085.82 168.741 1085.88 168.709L1088.51 167.285C1088.57 167.25 1088.62 167.199 1088.66 167.137L1090.1 164.535C1090.13 164.477 1090.18 164.428 1090.24 164.394C1090.3 164.361 1090.36 164.343 1090.43 164.343C1090.5 164.343 1090.56 164.361 1090.62 164.394C1090.68 164.428 1090.73 164.477 1090.76 164.535L1092.2 167.138C1092.24 167.201 1092.29 167.252 1092.35 167.286" fill="#E98333"/>
</g>
<g style="mix-blend-mode:lighten">
<path fill-rule="evenodd" clip-rule="evenodd" d="M1033.17 95.1287L1034.47 95.8323C1034.53 95.8645 1034.58 95.9118 1034.61 95.9693C1034.64 96.0268 1034.66 96.0923 1034.66 96.1591C1034.66 96.2259 1034.64 96.2914 1034.61 96.3489C1034.58 96.4064 1034.53 96.4537 1034.47 96.4859L1033.17 97.1876C1033.1 97.2222 1033.05 97.2736 1033.02 97.3359L1032.31 98.6204C1032.27 98.6792 1032.23 98.7282 1032.17 98.7624C1032.11 98.7965 1032.04 98.8146 1031.98 98.8146C1031.91 98.8146 1031.84 98.7965 1031.78 98.7624C1031.73 98.7282 1031.68 98.6792 1031.65 98.6204L1030.94 97.3359C1030.9 97.2733 1030.85 97.2219 1030.79 97.1876L1029.49 96.4859C1029.43 96.4537 1029.38 96.4064 1029.34 96.3489C1029.31 96.2914 1029.29 96.2259 1029.29 96.1591C1029.29 96.0923 1029.31 96.0268 1029.34 95.9693C1029.38 95.9118 1029.43 95.8645 1029.49 95.8323L1030.79 95.1296C1030.85 95.096 1030.9 95.0452 1030.94 94.9832L1031.65 93.6987C1031.68 93.6402 1031.73 93.5915 1031.78 93.5575C1031.84 93.5235 1031.91 93.5056 1031.98 93.5056C1032.04 93.5056 1032.11 93.5235 1032.17 93.5575C1032.23 93.5915 1032.27 93.6402 1032.31 93.6987L1033.02 94.9832C1033.05 95.0456 1033.11 95.0966 1033.17 95.1306" fill="#FCD05C"/>
</g>
<g style="mix-blend-mode:lighten">
<path fill-rule="evenodd" clip-rule="evenodd" d="M182.895 427.157L184.195 427.861C184.254 427.893 184.304 427.94 184.338 427.998C184.372 428.055 184.391 428.121 184.391 428.188C184.391 428.254 184.372 428.32 184.338 428.377C184.304 428.435 184.254 428.482 184.195 428.514L182.895 429.216C182.832 429.251 182.781 429.302 182.746 429.365L182.036 430.649C182.004 430.708 181.956 430.757 181.898 430.791C181.839 430.825 181.773 430.843 181.705 430.843C181.638 430.843 181.571 430.825 181.513 430.791C181.455 430.757 181.407 430.708 181.375 430.649L180.664 429.365C180.63 429.302 180.578 429.25 180.514 429.216L179.215 428.514C179.155 428.482 179.106 428.435 179.072 428.377C179.037 428.32 179.019 428.254 179.019 428.188C179.019 428.121 179.037 428.055 179.072 427.998C179.106 427.94 179.155 427.893 179.215 427.861L180.514 427.158C180.578 427.125 180.63 427.074 180.664 427.012L181.375 425.727C181.407 425.669 181.455 425.62 181.513 425.586C181.571 425.552 181.638 425.534 181.705 425.534C181.773 425.534 181.839 425.552 181.897 425.586C181.956 425.62 182.003 425.669 182.036 425.727L182.747 427.012C182.782 427.074 182.835 427.125 182.897 427.159" fill="#FCD05C"/>
</g>
<g style="mix-blend-mode:lighten">
<path fill-rule="evenodd" clip-rule="evenodd" d="M1586.49 497.853L1589.12 499.278C1589.18 499.31 1589.23 499.357 1589.26 499.415C1589.3 499.472 1589.32 499.538 1589.32 499.604C1589.32 499.671 1589.3 499.737 1589.26 499.794C1589.23 499.852 1589.18 499.899 1589.12 499.931L1586.49 501.354C1586.43 501.388 1586.37 501.439 1586.34 501.502L1584.9 504.103C1584.87 504.162 1584.82 504.211 1584.76 504.246C1584.7 504.28 1584.64 504.298 1584.57 504.298C1584.5 504.298 1584.44 504.28 1584.38 504.246C1584.32 504.211 1584.27 504.162 1584.24 504.103L1582.8 501.501C1582.76 501.437 1582.71 501.386 1582.65 501.352L1580.02 499.929C1579.96 499.897 1579.91 499.85 1579.87 499.793C1579.84 499.735 1579.82 499.669 1579.82 499.603C1579.82 499.536 1579.84 499.47 1579.87 499.412C1579.91 499.355 1579.96 499.308 1580.02 499.276L1582.65 497.851C1582.71 497.818 1582.76 497.767 1582.8 497.705L1584.24 495.103C1584.27 495.044 1584.32 494.996 1584.38 494.962C1584.43 494.928 1584.5 494.91 1584.57 494.91C1584.64 494.91 1584.7 494.928 1584.76 494.962C1584.82 494.996 1584.87 495.044 1584.9 495.103L1586.34 497.705C1586.37 497.767 1586.43 497.819 1586.49 497.852L1586.49 497.853ZM1313.99 95.0577L1315.24 95.7282C1315.49 95.8643 1315.49 96.2194 1315.24 96.3516L1313.99 97.025C1313.93 97.0573 1313.88 97.1058 1313.85 97.1648L1313.17 98.3926C1313.14 98.4484 1313.1 98.4948 1313.04 98.5271C1312.98 98.5595 1312.92 98.5765 1312.86 98.5765C1312.79 98.5765 1312.73 98.5595 1312.67 98.5271C1312.62 98.4948 1312.57 98.4484 1312.54 98.3926L1311.86 97.1648C1311.83 97.1057 1311.78 97.0573 1311.72 97.025L1310.48 96.3526C1310.42 96.3218 1310.37 96.2766 1310.34 96.2218C1310.31 96.167 1310.29 96.1045 1310.29 96.0409C1310.29 95.9772 1310.31 95.9147 1310.34 95.8599C1310.37 95.8051 1310.42 95.76 1310.48 95.7292L1311.72 95.0586C1311.78 95.0254 1311.83 94.9763 1311.86 94.9169L1312.54 93.6891C1312.57 93.6327 1312.62 93.5855 1312.67 93.5527C1312.73 93.5198 1312.79 93.5024 1312.86 93.5024C1312.92 93.5024 1312.98 93.5198 1313.04 93.5527C1313.1 93.5855 1313.14 93.6327 1313.17 93.6891L1313.85 94.9169C1313.88 94.9765 1313.93 95.0256 1313.99 95.0586" fill="#D15D64"/>
</g>
<g style="mix-blend-mode:lighten">
<path fill-rule="evenodd" clip-rule="evenodd" d="M1559.8 361.474L1561.1 362.177C1561.16 362.209 1561.21 362.257 1561.25 362.314C1561.28 362.372 1561.3 362.437 1561.3 362.504C1561.3 362.571 1561.28 362.636 1561.25 362.694C1561.21 362.751 1561.16 362.799 1561.1 362.831L1559.8 363.533C1559.74 363.567 1559.69 363.619 1559.65 363.681L1558.94 364.965C1558.91 365.024 1558.86 365.073 1558.8 365.107C1558.75 365.141 1558.68 365.16 1558.61 365.16C1558.54 365.16 1558.48 365.141 1558.42 365.107C1558.36 365.073 1558.31 365.024 1558.28 364.965L1557.57 363.681C1557.54 363.618 1557.49 363.567 1557.42 363.533L1556.12 362.831C1556.06 362.799 1556.01 362.751 1555.98 362.694C1555.94 362.636 1555.93 362.571 1555.93 362.504C1555.93 362.437 1555.94 362.372 1555.98 362.314C1556.01 362.257 1556.06 362.209 1556.12 362.177L1557.42 361.475C1557.48 361.441 1557.54 361.39 1557.57 361.328L1558.28 360.044C1558.31 359.985 1558.36 359.936 1558.42 359.902C1558.48 359.869 1558.55 359.851 1558.61 359.851C1558.68 359.851 1558.75 359.869 1558.8 359.902C1558.86 359.936 1558.91 359.985 1558.94 360.044L1559.65 361.328C1559.69 361.391 1559.74 361.442 1559.8 361.476" fill="#FCD05C"/>
</g>
<path fill-rule="evenodd" clip-rule="evenodd" d="M233.744 441.07L237.141 440.231L236.293 443.588L233.744 441.07Z" stroke="#E98333" stroke-width="1.097" stroke-linecap="round" stroke-linejoin="round"/>
<g style="mix-blend-mode:lighten">
<path fill-rule="evenodd" clip-rule="evenodd" d="M226.436 490.156L228.365 491.199L226.436 492.24L225.381 494.146L224.325 492.24L222.397 491.199L224.325 490.156L225.381 488.25L226.436 490.156Z" fill="#00A959"/>
</g>
<g style="mix-blend-mode:lighten">
<path fill-rule="evenodd" clip-rule="evenodd" d="M505.501 37.89L508.133 39.3134C508.192 39.3455 508.242 39.3927 508.276 39.45C508.31 39.5073 508.328 39.5727 508.328 39.6392C508.328 39.7058 508.31 39.7711 508.276 39.8284C508.242 39.8857 508.192 39.9329 508.133 39.9651L505.5 41.3894C505.437 41.4233 505.384 41.4744 505.349 41.5367L503.91 44.1397C503.878 44.1987 503.83 44.248 503.772 44.2824C503.714 44.3167 503.647 44.3349 503.579 44.3349C503.511 44.3349 503.445 44.3167 503.387 44.2824C503.328 44.248 503.281 44.1987 503.248 44.1397L501.808 41.5367C501.773 41.4747 501.721 41.4236 501.658 41.3894L499.025 39.966C498.966 39.9341 498.916 39.887 498.882 39.8296C498.847 39.7723 498.829 39.7069 498.829 39.6402C498.829 39.5735 498.847 39.508 498.882 39.4507C498.916 39.3934 498.966 39.3463 499.025 39.3143L501.658 37.89C501.721 37.8558 501.773 37.8047 501.808 37.7427L503.249 35.1406C503.282 35.0824 503.33 35.0338 503.388 34.9999C503.446 34.9661 503.512 34.9482 503.579 34.9482C503.646 34.9482 503.713 34.9661 503.771 34.9999C503.829 35.0338 503.876 35.0824 503.909 35.1406L505.349 37.7436C505.385 37.806 505.435 37.857 505.499 37.8919" fill="#E98333"/>
</g>
<path fill-rule="evenodd" clip-rule="evenodd" d="M622.948 191.028L622.138 189.517C622.099 189.444 622.039 189.385 621.966 189.347L620.437 188.546C620.37 188.511 620.314 188.459 620.275 188.395C620.236 188.331 620.215 188.258 620.215 188.183C620.215 188.108 620.236 188.035 620.275 187.971C620.314 187.907 620.37 187.855 620.437 187.82L621.966 187.02C622.039 186.982 622.099 186.923 622.138 186.85L622.948 185.339C622.983 185.273 623.036 185.217 623.101 185.179C623.166 185.14 623.24 185.12 623.316 185.12C623.392 185.12 623.466 185.14 623.531 185.179C623.596 185.217 623.649 185.273 623.684 185.339L624.491 186.85C624.531 186.923 624.59 186.982 624.664 187.02L626.193 187.82C626.489 187.974 626.489 188.392 626.193 188.546L624.664 189.346C624.59 189.384 624.53 189.443 624.491 189.516L623.683 191.027C623.648 191.093 623.595 191.149 623.53 191.187C623.465 191.226 623.391 191.247 623.315 191.247C623.239 191.247 623.165 191.226 623.1 191.187C623.035 191.149 622.982 191.093 622.947 191.027L622.948 191.028Z" stroke="#7B63AB" stroke-width="1.097" stroke-linecap="round" stroke-linejoin="round"/>
<g style="mix-blend-mode:lighten">
<path fill-rule="evenodd" clip-rule="evenodd" d="M565.714 152.173L568.348 153.596C568.407 153.628 568.456 153.675 568.49 153.733C568.524 153.79 568.542 153.855 568.542 153.922C568.542 153.988 568.524 154.054 568.49 154.111C568.456 154.168 568.407 154.215 568.348 154.248L565.714 155.671C565.65 155.706 565.599 155.759 565.564 155.822L564.124 158.423C564.092 158.482 564.044 158.531 563.986 158.565C563.928 158.599 563.862 158.617 563.794 158.617C563.727 158.617 563.661 158.599 563.603 158.565C563.545 158.531 563.497 158.482 563.465 158.423L562.023 155.82C561.989 155.758 561.937 155.706 561.873 155.672L559.24 154.25C559.181 154.218 559.132 154.171 559.098 154.114C559.063 154.057 559.045 153.991 559.045 153.925C559.045 153.858 559.063 153.793 559.098 153.735C559.132 153.678 559.181 153.631 559.24 153.599L561.873 152.175C561.936 152.141 561.989 152.089 562.023 152.027L563.464 149.425C563.496 149.367 563.544 149.318 563.602 149.284C563.66 149.25 563.726 149.232 563.793 149.232C563.861 149.232 563.927 149.25 563.985 149.284C564.043 149.318 564.091 149.367 564.123 149.425L565.564 152.027C565.599 152.089 565.65 152.14 565.714 152.175" fill="#D15D64"/>
</g>
<g style="mix-blend-mode:lighten">
<path fill-rule="evenodd" clip-rule="evenodd" d="M168.11 120.06L170.742 121.484C170.801 121.516 170.85 121.563 170.885 121.62C170.919 121.677 170.937 121.743 170.937 121.809C170.937 121.876 170.919 121.941 170.885 121.999C170.85 122.056 170.801 122.103 170.742 122.135L168.108 123.56C168.045 123.594 167.994 123.645 167.959 123.707L166.519 126.31C166.486 126.368 166.439 126.417 166.381 126.451C166.323 126.485 166.256 126.503 166.189 126.503C166.121 126.503 166.055 126.485 165.997 126.451C165.939 126.417 165.891 126.368 165.859 126.31L164.419 123.707C164.383 123.644 164.33 123.593 164.266 123.56L161.636 122.136C161.576 122.104 161.527 122.057 161.492 122C161.458 121.942 161.44 121.877 161.44 121.81C161.44 121.744 161.458 121.678 161.492 121.621C161.527 121.564 161.576 121.516 161.636 121.484L164.268 120.06C164.331 120.026 164.383 119.975 164.418 119.913L165.859 117.311C165.892 117.253 165.939 117.204 165.997 117.17C166.055 117.136 166.122 117.118 166.189 117.118C166.256 117.118 166.322 117.136 166.38 117.17C166.438 117.204 166.486 117.253 166.519 117.311L167.959 119.914C167.993 119.976 168.045 120.027 168.108 120.062" fill="#E98333"/>
</g>
<g style="mix-blend-mode:lighten">
<path fill-rule="evenodd" clip-rule="evenodd" d="M284.556 53.7478C284.555 54.4761 284.262 55.1744 283.741 55.6891C283.219 56.2038 282.512 56.4928 281.775 56.4924C281.038 56.4921 280.332 56.2024 279.811 55.6871C279.29 55.1719 278.998 54.4732 278.998 53.7449C278.998 53.3843 279.07 53.0272 279.21 52.6941C279.35 52.361 279.555 52.0584 279.813 51.8036C280.071 51.5487 280.377 51.3466 280.715 51.2087C281.052 51.0709 281.413 51.0001 281.778 51.0002C282.143 51.0004 282.505 51.0716 282.842 51.2098C283.179 51.348 283.485 51.5504 283.743 51.8056C284.001 52.0607 284.205 52.3635 284.345 52.6968C284.484 53.03 284.556 53.3871 284.556 53.7478" fill="#D15D64"/>
</g>
<path fill-rule="evenodd" clip-rule="evenodd" d="M46.611 193.861L45.8015 192.35C45.7623 192.278 45.7025 192.219 45.6294 192.18L44.1002 191.379C44.0333 191.344 43.9774 191.292 43.9383 191.228C43.8993 191.164 43.8787 191.091 43.8787 191.017C43.8787 190.942 43.8993 190.869 43.9383 190.805C43.9774 190.741 44.0333 190.689 44.1002 190.654L45.6294 189.854C45.7024 189.815 45.7622 189.756 45.8015 189.684L46.611 188.173C46.6463 188.106 46.6992 188.051 46.7641 188.012C46.8289 187.974 46.9032 187.953 46.979 187.953C47.0548 187.953 47.1291 187.974 47.1939 188.012C47.2588 188.051 47.3117 188.106 47.347 188.173L48.1546 189.684C48.1938 189.756 48.2536 189.815 48.3266 189.854L49.8559 190.654C50.1522 190.808 50.1522 191.225 49.8559 191.379L48.3266 192.179C48.2535 192.218 48.1936 192.277 48.1546 192.349L47.346 193.86C47.3108 193.927 47.2578 193.982 47.193 194.021C47.1281 194.06 47.0538 194.08 46.978 194.08C46.9023 194.08 46.828 194.06 46.7631 194.021C46.6983 193.982 46.6453 193.927 46.6101 193.86L46.611 193.861Z" stroke="#7B63AB" stroke-width="1.097" stroke-linecap="round" stroke-linejoin="round"/>
<g style="mix-blend-mode:lighten">
<path fill-rule="evenodd" clip-rule="evenodd" d="M1614.21 246.62L1616.84 248.044C1616.9 248.076 1616.95 248.123 1616.98 248.181C1617.02 248.238 1617.04 248.304 1617.04 248.37C1617.04 248.437 1617.02 248.503 1616.98 248.56C1616.95 248.618 1616.9 248.665 1616.84 248.697L1614.21 250.121C1614.14 250.155 1614.09 250.206 1614.06 250.268L1612.62 252.87C1612.59 252.929 1612.54 252.978 1612.48 253.013C1612.42 253.047 1612.36 253.065 1612.29 253.065C1612.22 253.065 1612.15 253.047 1612.09 253.013C1612.04 252.978 1611.99 252.929 1611.96 252.87L1610.52 250.268C1610.48 250.205 1610.43 250.154 1610.36 250.121L1607.73 248.697C1607.67 248.665 1607.62 248.618 1607.59 248.561C1607.55 248.503 1607.54 248.437 1607.54 248.37C1607.54 248.304 1607.55 248.238 1607.59 248.18C1607.62 248.123 1607.67 248.076 1607.73 248.044L1610.37 246.62C1610.43 246.587 1610.48 246.536 1610.52 246.474L1611.96 243.872C1611.99 243.813 1612.04 243.765 1612.09 243.73C1612.15 243.696 1612.22 243.678 1612.29 243.678C1612.35 243.678 1612.42 243.696 1612.48 243.73C1612.54 243.765 1612.58 243.813 1612.62 243.872L1614.06 246.475C1614.09 246.537 1614.14 246.588 1614.21 246.622" fill="#D15D64"/>
</g>
<g style="mix-blend-mode:lighten">
<path fill-rule="evenodd" clip-rule="evenodd" d="M1562.67 211.302L1563.97 212.004C1564.03 212.036 1564.08 212.084 1564.11 212.141C1564.15 212.198 1564.17 212.264 1564.17 212.331C1564.17 212.398 1564.15 212.463 1564.11 212.521C1564.08 212.578 1564.03 212.625 1563.97 212.658L1562.67 213.36C1562.61 213.395 1562.56 213.446 1562.52 213.509L1561.81 214.793C1561.78 214.852 1561.73 214.9 1561.67 214.934C1561.61 214.968 1561.55 214.986 1561.48 214.986C1561.41 214.986 1561.35 214.968 1561.29 214.934C1561.23 214.9 1561.18 214.852 1561.15 214.793L1560.44 213.509C1560.4 213.446 1560.35 213.395 1560.29 213.361L1558.99 212.659C1558.93 212.627 1558.88 212.58 1558.85 212.522C1558.81 212.465 1558.79 212.399 1558.79 212.333C1558.79 212.266 1558.81 212.2 1558.85 212.143C1558.88 212.085 1558.93 212.038 1558.99 212.006L1560.29 211.304C1560.35 211.27 1560.4 211.218 1560.44 211.156L1561.15 209.871C1561.18 209.813 1561.23 209.764 1561.29 209.73C1561.35 209.696 1561.41 209.678 1561.48 209.678C1561.55 209.678 1561.61 209.696 1561.67 209.73C1561.73 209.764 1561.78 209.813 1561.81 209.871L1562.52 211.156C1562.56 211.218 1562.61 211.27 1562.67 211.304" fill="#7B63AB"/>
</g>
<g style="mix-blend-mode:lighten">
<path fill-rule="evenodd" clip-rule="evenodd" d="M1538.6 45.9444L1539.85 46.615C1540.09 46.7519 1540.09 47.1061 1539.85 47.2402L1538.6 47.9108C1538.54 47.9436 1538.49 47.9928 1538.46 48.0525L1537.78 49.2803C1537.75 49.336 1537.7 49.3825 1537.65 49.4148C1537.59 49.4472 1537.53 49.4642 1537.47 49.4642C1537.4 49.4642 1537.34 49.4472 1537.28 49.4148C1537.23 49.3825 1537.18 49.336 1537.15 49.2803L1536.47 48.0525C1536.44 47.9927 1536.39 47.9436 1536.33 47.9108L1535.08 47.2402C1535.03 47.2096 1534.98 47.1644 1534.95 47.1094C1534.91 47.0544 1534.9 46.9916 1534.9 46.9276C1534.9 46.8636 1534.91 46.8008 1534.95 46.7458C1534.98 46.6908 1535.03 46.6456 1535.08 46.615L1536.33 45.9444C1536.39 45.9112 1536.44 45.8621 1536.47 45.8027L1537.15 44.5768C1537.18 44.5204 1537.23 44.4732 1537.28 44.4404C1537.34 44.4075 1537.4 44.3901 1537.47 44.3901C1537.53 44.3901 1537.59 44.4075 1537.65 44.4404C1537.71 44.4732 1537.75 44.5204 1537.78 44.5768L1538.46 45.8027C1538.49 45.8623 1538.54 45.9114 1538.6 45.9444" fill="#D15D64"/>
</g>
<g style="mix-blend-mode:lighten">
<path fill-rule="evenodd" clip-rule="evenodd" d="M1587.52 110.24L1588.82 110.944C1588.88 110.976 1588.93 111.023 1588.96 111.081C1589 111.138 1589.02 111.204 1589.02 111.271C1589.02 111.337 1589 111.403 1588.96 111.46C1588.93 111.518 1588.88 111.565 1588.82 111.597L1587.52 112.299C1587.46 112.334 1587.41 112.385 1587.37 112.448L1586.66 113.732C1586.63 113.791 1586.58 113.84 1586.52 113.874C1586.46 113.908 1586.4 113.926 1586.33 113.926C1586.26 113.926 1586.2 113.908 1586.14 113.874C1586.08 113.84 1586.03 113.791 1586 113.732L1585.29 112.448C1585.25 112.385 1585.2 112.333 1585.14 112.299L1583.84 111.597C1583.78 111.565 1583.73 111.518 1583.7 111.46C1583.66 111.403 1583.64 111.337 1583.64 111.271C1583.64 111.204 1583.66 111.138 1583.7 111.081C1583.73 111.023 1583.78 110.976 1583.84 110.944L1585.14 110.241C1585.2 110.208 1585.25 110.157 1585.29 110.095L1586 108.81C1586.03 108.752 1586.08 108.703 1586.14 108.669C1586.2 108.635 1586.26 108.617 1586.33 108.617C1586.4 108.617 1586.46 108.635 1586.52 108.669C1586.58 108.703 1586.63 108.752 1586.66 108.81L1587.37 110.095C1587.41 110.157 1587.46 110.208 1587.52 110.242" fill="#FCD05C"/>
</g>
<mask id="mask0_0_65" style="mask-type:alpha" maskUnits="userSpaceOnUse" x="1508" y="409" width="7" height="7">
<path d="M1514.09 409.97V415.281H1508.72V409.969H1514.09V409.97Z" fill="white"/>
</mask>
<g mask="url(#mask0_0_65)">
<path fill-rule="evenodd" clip-rule="evenodd" d="M1512.6 411.597L1513.9 412.299C1513.96 412.331 1514.01 412.378 1514.04 412.436C1514.07 412.493 1514.09 412.559 1514.09 412.626C1514.09 412.693 1514.07 412.758 1514.04 412.816C1514.01 412.873 1513.96 412.921 1513.9 412.953L1512.6 413.654C1512.53 413.689 1512.48 413.74 1512.45 413.802L1511.74 415.086C1511.7 415.145 1511.66 415.194 1511.6 415.228C1511.54 415.262 1511.47 415.28 1511.41 415.28C1511.34 415.28 1511.27 415.262 1511.21 415.228C1511.15 415.194 1511.11 415.145 1511.07 415.086L1510.36 413.802C1510.33 413.74 1510.28 413.689 1510.22 413.654L1508.92 412.953C1508.86 412.92 1508.81 412.873 1508.77 412.816C1508.74 412.758 1508.72 412.693 1508.72 412.626C1508.72 412.559 1508.74 412.494 1508.77 412.436C1508.81 412.379 1508.86 412.331 1508.92 412.299L1510.22 411.596C1510.28 411.562 1510.33 411.511 1510.36 411.448L1511.08 410.164C1511.11 410.105 1511.16 410.056 1511.22 410.022C1511.27 409.988 1511.34 409.969 1511.41 409.969C1511.48 409.969 1511.54 409.988 1511.6 410.022C1511.66 410.056 1511.71 410.105 1511.74 410.164L1512.45 411.448C1512.48 411.51 1512.53 411.561 1512.6 411.595" fill="#7B63AB"/>
</g>
<g style="mix-blend-mode:lighten">
<path fill-rule="evenodd" clip-rule="evenodd" d="M1321.74 456.298L1324.37 457.721C1324.43 457.754 1324.48 457.801 1324.51 457.858C1324.55 457.915 1324.57 457.981 1324.57 458.047C1324.57 458.114 1324.55 458.179 1324.51 458.236C1324.48 458.294 1324.43 458.341 1324.37 458.373L1321.74 459.796C1321.67 459.83 1321.62 459.881 1321.59 459.944L1320.15 462.546C1320.12 462.605 1320.07 462.654 1320.01 462.688C1319.95 462.723 1319.89 462.741 1319.82 462.741C1319.75 462.741 1319.68 462.723 1319.63 462.688C1319.57 462.654 1319.52 462.605 1319.49 462.546L1318.05 459.944C1318.01 459.881 1317.96 459.83 1317.9 459.796L1315.26 458.373C1315.2 458.341 1315.16 458.294 1315.12 458.237C1315.09 458.179 1315.07 458.114 1315.07 458.047C1315.07 457.981 1315.09 457.915 1315.12 457.858C1315.16 457.8 1315.2 457.753 1315.26 457.721L1317.9 456.298C1317.96 456.264 1318.01 456.212 1318.05 456.15L1319.49 453.548C1319.52 453.489 1319.57 453.44 1319.62 453.406C1319.68 453.372 1319.75 453.354 1319.82 453.354C1319.88 453.354 1319.95 453.372 1320.01 453.406C1320.07 453.44 1320.11 453.489 1320.15 453.548L1321.59 456.151C1321.62 456.214 1321.68 456.266 1321.74 456.3" fill="#FCD05C"/>
</g>
<g style="mix-blend-mode:lighten">
<path fill-rule="evenodd" clip-rule="evenodd" d="M1215.55 319.846L1216.79 320.517C1217.04 320.653 1217.04 321.008 1216.79 321.14L1215.55 321.813C1215.49 321.845 1215.44 321.895 1215.41 321.954L1214.73 323.18C1214.7 323.236 1214.65 323.282 1214.59 323.315C1214.54 323.347 1214.48 323.364 1214.41 323.364C1214.35 323.364 1214.28 323.347 1214.23 323.315C1214.17 323.282 1214.13 323.236 1214.1 323.18L1213.42 321.952C1213.38 321.893 1213.33 321.845 1213.27 321.813L1212.03 321.14C1211.97 321.109 1211.93 321.064 1211.89 321.009C1211.86 320.955 1211.84 320.892 1211.84 320.828C1211.84 320.765 1211.86 320.702 1211.89 320.647C1211.93 320.593 1211.97 320.548 1212.03 320.517L1213.27 319.846C1213.33 319.813 1213.38 319.764 1213.42 319.705L1214.09 318.477C1214.13 318.42 1214.17 318.373 1214.23 318.34C1214.28 318.307 1214.35 318.29 1214.41 318.29C1214.48 318.29 1214.54 318.307 1214.59 318.34C1214.65 318.373 1214.7 318.42 1214.73 318.477L1215.41 319.705C1215.44 319.764 1215.49 319.813 1215.55 319.846" fill="#D15D64"/>
</g>
<g style="mix-blend-mode:lighten">
<path fill-rule="evenodd" clip-rule="evenodd" d="M1425.99 384.141L1427.29 384.845C1427.35 384.877 1427.4 384.924 1427.44 384.982C1427.47 385.039 1427.49 385.105 1427.49 385.172C1427.49 385.238 1427.47 385.304 1427.44 385.361C1427.4 385.419 1427.35 385.466 1427.29 385.498L1425.99 386.2C1425.93 386.235 1425.88 386.286 1425.84 386.348L1425.13 387.633C1425.1 387.692 1425.05 387.741 1425 387.775C1424.94 387.809 1424.87 387.827 1424.8 387.827C1424.74 387.827 1424.67 387.809 1424.61 387.775C1424.55 387.741 1424.5 387.692 1424.47 387.633L1423.76 386.348C1423.73 386.286 1423.68 386.234 1423.61 386.2L1422.31 385.498C1422.25 385.466 1422.2 385.419 1422.17 385.361C1422.14 385.304 1422.12 385.238 1422.12 385.172C1422.12 385.105 1422.14 385.039 1422.17 384.982C1422.2 384.924 1422.25 384.877 1422.31 384.845L1423.61 384.142C1423.68 384.108 1423.73 384.058 1423.76 383.996L1424.47 382.711C1424.5 382.653 1424.55 382.604 1424.61 382.57C1424.67 382.536 1424.74 382.518 1424.8 382.518C1424.87 382.518 1424.94 382.536 1425 382.57C1425.05 382.604 1425.1 382.653 1425.13 382.711L1425.84 383.996C1425.88 384.058 1425.93 384.109 1425.99 384.143" fill="#FCD05C"/>
</g>
<path fill-rule="evenodd" clip-rule="evenodd" d="M1634.3 425.513L1635.98 425.002L1637.67 425.513L1637.15 423.849L1637.67 422.185L1635.98 422.698L1634.3 422.185L1634.82 423.849L1634.3 425.513Z" stroke="#00A959" stroke-width="1.097" stroke-linecap="round" stroke-linejoin="round"/>
<mask id="mask1_0_65" style="mask-type:alpha" maskUnits="userSpaceOnUse" x="1525" y="588" width="11" height="10">
<path d="M1525.98 588.128H1535.48V597.515H1525.98V588.128Z" fill="white"/>
</mask>
<g mask="url(#mask1_0_65)">
<path fill-rule="evenodd" clip-rule="evenodd" d="M1532.65 591.071L1535.28 592.495C1535.34 592.527 1535.39 592.574 1535.43 592.631C1535.46 592.689 1535.48 592.754 1535.48 592.821C1535.48 592.887 1535.46 592.952 1535.43 593.01C1535.39 593.067 1535.34 593.114 1535.28 593.146L1532.65 594.573C1532.59 594.607 1532.53 594.658 1532.5 594.721L1531.06 597.321C1531.03 597.379 1530.98 597.428 1530.92 597.462C1530.86 597.496 1530.8 597.513 1530.73 597.513C1530.66 597.513 1530.6 597.496 1530.54 597.462C1530.48 597.428 1530.43 597.379 1530.4 597.321L1528.96 594.719C1528.92 594.656 1528.87 594.605 1528.81 594.571L1526.17 593.146C1526.12 593.114 1526.07 593.067 1526.03 593.01C1526 592.952 1525.98 592.887 1525.98 592.821C1525.98 592.754 1526 592.689 1526.03 592.631C1526.07 592.574 1526.12 592.527 1526.17 592.495L1528.81 591.071C1528.87 591.037 1528.92 590.986 1528.96 590.923L1530.4 588.32C1530.43 588.262 1530.48 588.213 1530.54 588.179C1530.6 588.146 1530.66 588.128 1530.73 588.128C1530.8 588.128 1530.86 588.146 1530.92 588.179C1530.98 588.213 1531.03 588.262 1531.06 588.32L1532.5 590.923C1532.53 590.986 1532.59 591.038 1532.65 591.071" fill="#D15D64"/>
</g>
<path fill-rule="evenodd" clip-rule="evenodd" d="M171.655 489.685L170.249 491.074L171.655 489.685ZM175.477 485.907L174.072 487.296L175.477 485.907ZM171.723 489.839C172.055 490.168 172.506 490.352 172.975 490.352C173.445 490.352 173.895 490.168 174.227 489.839C174.56 489.511 174.746 489.066 174.746 488.602C174.746 488.138 174.56 487.693 174.227 487.365C173.895 487.037 173.445 486.852 172.975 486.852C172.506 486.852 172.055 487.037 171.723 487.365C171.391 487.693 171.205 488.138 171.205 488.602C171.205 489.066 171.391 489.511 171.723 489.839V489.839Z" stroke="#E98333" stroke-width="1.097" stroke-linecap="round" stroke-linejoin="round"/>
<g style="mix-blend-mode:lighten">
<path fill-rule="evenodd" clip-rule="evenodd" d="M226.486 1134.23L227.786 1133.53C227.845 1133.5 227.895 1133.45 227.929 1133.39C227.963 1133.34 227.982 1133.27 227.982 1133.2C227.982 1133.14 227.963 1133.07 227.929 1133.01C227.895 1132.96 227.845 1132.91 227.786 1132.88L226.486 1132.18C226.423 1132.14 226.372 1132.09 226.337 1132.03L225.627 1130.74C225.595 1130.68 225.547 1130.64 225.489 1130.6C225.43 1130.57 225.364 1130.55 225.296 1130.55C225.229 1130.55 225.162 1130.57 225.104 1130.6C225.046 1130.64 224.998 1130.68 224.966 1130.74L224.255 1132.03C224.221 1132.09 224.169 1132.14 224.105 1132.18L222.806 1132.88C222.746 1132.91 222.697 1132.96 222.663 1133.01C222.628 1133.07 222.61 1133.14 222.61 1133.2C222.61 1133.27 222.628 1133.34 222.663 1133.39C222.697 1133.45 222.746 1133.5 222.806 1133.53L224.105 1134.23C224.168 1134.27 224.22 1134.32 224.255 1134.38L224.966 1135.67C225.109 1135.92 225.484 1135.92 225.627 1135.67L226.338 1134.38C226.373 1134.32 226.425 1134.27 226.488 1134.23" fill="#FCD05C"/>
</g>
<g style="mix-blend-mode:lighten">
<path fill-rule="evenodd" clip-rule="evenodd" d="M1151.45 1070.01C1151.45 1069.29 1151.16 1068.59 1150.64 1068.07C1150.11 1067.56 1149.41 1067.27 1148.67 1067.27C1147.93 1067.27 1147.23 1067.56 1146.71 1068.07C1146.18 1068.59 1145.89 1069.29 1145.89 1070.02C1145.89 1070.74 1146.19 1071.44 1146.71 1071.96C1147.23 1072.47 1147.94 1072.76 1148.67 1072.76C1149.41 1072.76 1150.12 1072.47 1150.64 1071.95C1151.16 1071.44 1151.45 1070.74 1151.45 1070.01V1070.01ZM107.894 978.319L110.528 976.897C110.587 976.865 110.637 976.817 110.672 976.76C110.706 976.702 110.724 976.637 110.724 976.57C110.724 976.503 110.706 976.437 110.672 976.38C110.637 976.322 110.587 976.275 110.528 976.243L107.894 974.82C107.831 974.785 107.779 974.734 107.745 974.671L106.304 972.069C106.272 972.011 106.224 971.962 106.166 971.928C106.108 971.894 106.042 971.876 105.975 971.876C105.907 971.876 105.841 971.894 105.783 971.928C105.725 971.962 105.677 972.011 105.645 972.069L104.204 974.671C104.169 974.734 104.117 974.785 104.053 974.82L101.42 976.243C101.361 976.275 101.312 976.322 101.278 976.38C101.244 976.437 101.226 976.502 101.226 976.569C101.226 976.635 101.244 976.701 101.278 976.758C101.312 976.815 101.361 976.863 101.42 976.895L104.053 978.319C104.117 978.353 104.168 978.404 104.204 978.467L105.644 981.068C105.787 981.326 106.162 981.326 106.303 981.068L107.745 978.465C107.779 978.403 107.831 978.352 107.894 978.318" fill="#D15D64"/>
</g>
<g style="mix-blend-mode:lighten">
<path fill-rule="evenodd" clip-rule="evenodd" d="M194.945 749.827L196.245 749.124C196.305 749.092 196.354 749.045 196.388 748.987C196.423 748.93 196.441 748.864 196.441 748.798C196.441 748.731 196.423 748.665 196.388 748.608C196.354 748.55 196.305 748.503 196.245 748.471L194.945 747.769C194.883 747.735 194.831 747.684 194.796 747.622L194.086 746.337C194.054 746.278 194.006 746.229 193.948 746.195C193.89 746.161 193.823 746.143 193.756 746.143C193.688 746.143 193.621 746.161 193.563 746.195C193.505 746.229 193.457 746.278 193.425 746.337L192.715 747.622C192.68 747.685 192.628 747.736 192.565 747.771L191.265 748.472C191.206 748.504 191.156 748.551 191.122 748.609C191.087 748.666 191.069 748.732 191.069 748.798C191.069 748.865 191.087 748.931 191.122 748.988C191.156 749.046 191.206 749.093 191.265 749.125L192.565 749.829C192.628 749.864 192.679 749.914 192.715 749.976L193.425 751.261C193.568 751.519 193.943 751.519 194.086 751.261L194.797 749.976C194.832 749.914 194.884 749.863 194.947 749.829" fill="#FCD05C"/>
</g>
<g style="mix-blend-mode:lighten">
<path fill-rule="evenodd" clip-rule="evenodd" d="M1389.6 1002.88L1392.23 1001.45C1392.29 1001.42 1392.34 1001.37 1392.37 1001.32C1392.41 1001.26 1392.43 1001.19 1392.43 1001.13C1392.43 1001.06 1392.41 1000.99 1392.37 1000.94C1392.34 1000.88 1392.29 1000.83 1392.23 1000.8L1389.6 999.375C1389.53 999.341 1389.48 999.29 1389.45 999.228L1388.01 996.626C1387.98 996.567 1387.93 996.517 1387.87 996.483C1387.81 996.449 1387.75 996.431 1387.68 996.431C1387.61 996.431 1387.54 996.449 1387.49 996.483C1387.43 996.517 1387.38 996.567 1387.35 996.626L1385.91 999.228C1385.87 999.291 1385.82 999.342 1385.76 999.375L1383.12 1000.8C1383.06 1000.83 1383.02 1000.88 1382.98 1000.94C1382.95 1000.99 1382.93 1001.06 1382.93 1001.13C1382.93 1001.19 1382.95 1001.26 1382.98 1001.32C1383.02 1001.37 1383.06 1001.42 1383.12 1001.45L1385.76 1002.88C1385.82 1002.91 1385.87 1002.96 1385.91 1003.02L1387.35 1005.62C1387.49 1005.88 1387.87 1005.88 1388.01 1005.62L1389.45 1003.02C1389.48 1002.96 1389.54 1002.91 1389.6 1002.87" fill="#D15D64"/>
</g>
<g style="mix-blend-mode:lighten">
<path fill-rule="evenodd" clip-rule="evenodd" d="M1338.06 1025.62L1339.36 1024.92C1339.42 1024.88 1339.47 1024.84 1339.5 1024.78C1339.54 1024.72 1339.56 1024.66 1339.56 1024.59C1339.56 1024.52 1339.54 1024.46 1339.5 1024.4C1339.47 1024.34 1339.42 1024.29 1339.36 1024.26L1338.06 1023.56C1338 1023.52 1337.95 1023.47 1337.91 1023.41L1337.2 1022.13C1337.17 1022.07 1337.12 1022.02 1337.06 1021.99C1337.01 1021.95 1336.94 1021.94 1336.87 1021.94C1336.8 1021.94 1336.74 1021.95 1336.68 1021.99C1336.62 1022.02 1336.57 1022.07 1336.54 1022.13L1335.83 1023.41C1335.8 1023.47 1335.74 1023.53 1335.68 1023.56L1334.38 1024.26C1334.32 1024.3 1334.27 1024.34 1334.24 1024.4C1334.2 1024.46 1334.19 1024.52 1334.19 1024.59C1334.19 1024.66 1334.2 1024.72 1334.24 1024.78C1334.27 1024.84 1334.32 1024.89 1334.38 1024.92L1335.68 1025.62C1335.74 1025.65 1335.8 1025.7 1335.83 1025.77L1336.54 1027.05C1336.68 1027.31 1337.06 1027.31 1337.2 1027.05L1337.91 1025.77C1337.95 1025.7 1338 1025.65 1338.06 1025.62" fill="#7B63AB"/>
</g>
<path fill-rule="evenodd" clip-rule="evenodd" d="M390.826 844.999L394.223 845.838L393.375 842.481L390.826 844.999Z" stroke="#E98333" stroke-width="1.097" stroke-linecap="round" stroke-linejoin="round"/>
<g style="mix-blend-mode:lighten">
<path fill-rule="evenodd" clip-rule="evenodd" d="M497.134 703.854L499.063 702.812L497.134 701.771L496.079 699.865L495.024 701.771L493.095 702.811L495.024 703.854L496.079 705.76L497.134 703.854Z" fill="#00A959"/>
</g>
<g style="mix-blend-mode:lighten">
<path fill-rule="evenodd" clip-rule="evenodd" d="M168.11 1157.77L170.742 1156.35C170.802 1156.32 170.851 1156.27 170.886 1156.21C170.92 1156.15 170.939 1156.09 170.939 1156.02C170.939 1155.96 170.92 1155.89 170.886 1155.83C170.851 1155.77 170.802 1155.73 170.742 1155.7L168.108 1154.27C168.045 1154.24 167.994 1154.19 167.959 1154.12L166.519 1151.52C166.486 1151.46 166.439 1151.42 166.381 1151.38C166.323 1151.35 166.256 1151.33 166.189 1151.33C166.121 1151.33 166.055 1151.35 165.997 1151.38C165.939 1151.42 165.891 1151.46 165.859 1151.52L164.419 1154.13C164.383 1154.19 164.33 1154.24 164.266 1154.27L161.636 1155.7C161.576 1155.73 161.527 1155.78 161.492 1155.83C161.458 1155.89 161.44 1155.96 161.44 1156.02C161.44 1156.09 161.458 1156.16 161.492 1156.21C161.527 1156.27 161.576 1156.32 161.636 1156.35L164.268 1157.77C164.331 1157.81 164.382 1157.86 164.418 1157.92L165.859 1160.52C166.003 1160.78 166.375 1160.78 166.519 1160.52L167.959 1157.92C167.993 1157.86 168.045 1157.81 168.108 1157.77" fill="#E98333"/>
</g>
<g style="mix-blend-mode:lighten">
<path fill-rule="evenodd" clip-rule="evenodd" d="M284.556 1252.3C284.555 1251.57 284.262 1250.87 283.741 1250.36C283.219 1249.84 282.512 1249.55 281.775 1249.55C281.038 1249.55 280.332 1249.84 279.811 1250.36C279.29 1250.87 278.998 1251.57 278.998 1252.3C278.998 1253.03 279.292 1253.73 279.813 1254.24C280.335 1254.76 281.042 1255.05 281.779 1255.05C282.516 1255.05 283.222 1254.76 283.743 1254.24C284.264 1253.73 284.556 1253.03 284.556 1252.3" fill="#D15D64"/>
</g>
<path fill-rule="evenodd" clip-rule="evenodd" d="M46.611 1109.05L45.8015 1110.56C45.7623 1110.63 45.7025 1110.69 45.6294 1110.73L44.1002 1111.53C44.0333 1111.56 43.9774 1111.61 43.9383 1111.68C43.8993 1111.74 43.8787 1111.82 43.8787 1111.89C43.8787 1111.96 43.8993 1112.04 43.9383 1112.1C43.9774 1112.17 44.0333 1112.22 44.1002 1112.25L45.6294 1113.05C45.7021 1113.09 45.7632 1113.15 45.8015 1113.22L46.611 1114.73C46.7668 1115.03 47.1893 1115.03 47.347 1114.73L48.1546 1113.22C48.1937 1113.15 48.2536 1113.09 48.3266 1113.05L49.8559 1112.25C49.9227 1112.22 49.9787 1112.17 50.0177 1112.1C50.0568 1112.04 50.0774 1111.96 50.0774 1111.89C50.0774 1111.82 50.0568 1111.74 50.0177 1111.68C49.9787 1111.61 49.9227 1111.56 49.8559 1111.53L48.3266 1110.73C48.2535 1110.69 48.1936 1110.63 48.1546 1110.56L47.346 1109.05C47.3107 1108.98 47.2578 1108.92 47.193 1108.89C47.1281 1108.85 47.0538 1108.83 46.978 1108.83C46.9023 1108.83 46.828 1108.85 46.7631 1108.89C46.6982 1108.92 46.6453 1108.98 46.6101 1109.05L46.611 1109.05Z" stroke="#7B63AB" stroke-width="1.097" stroke-linecap="round" stroke-linejoin="round"/>
<g style="mix-blend-mode:lighten">
<path fill-rule="evenodd" clip-rule="evenodd" d="M1614.21 1049.16L1616.84 1047.73C1616.9 1047.7 1616.95 1047.65 1616.98 1047.6C1617.02 1047.54 1617.04 1047.47 1617.04 1047.41C1617.04 1047.34 1617.02 1047.27 1616.98 1047.22C1616.95 1047.16 1616.9 1047.11 1616.84 1047.08L1614.21 1045.65C1614.14 1045.62 1614.09 1045.57 1614.06 1045.51L1612.62 1042.91C1612.59 1042.85 1612.54 1042.8 1612.48 1042.76C1612.42 1042.73 1612.36 1042.71 1612.29 1042.71C1612.22 1042.71 1612.15 1042.73 1612.09 1042.76C1612.04 1042.8 1611.99 1042.85 1611.96 1042.91L1610.52 1045.51C1610.48 1045.57 1610.43 1045.62 1610.36 1045.65L1607.73 1047.08C1607.67 1047.11 1607.62 1047.16 1607.59 1047.22C1607.55 1047.27 1607.54 1047.34 1607.54 1047.41C1607.54 1047.47 1607.55 1047.54 1607.59 1047.6C1607.62 1047.65 1607.67 1047.7 1607.73 1047.73L1610.37 1049.16C1610.43 1049.19 1610.48 1049.24 1610.52 1049.3L1611.96 1051.9C1612.1 1052.16 1612.48 1052.16 1612.62 1051.9L1614.06 1049.3C1614.09 1049.24 1614.14 1049.19 1614.21 1049.15" fill="#D15D64"/>
</g>
<g style="mix-blend-mode:lighten">
<path fill-rule="evenodd" clip-rule="evenodd" d="M1562.67 1091.73L1563.97 1091.03C1564.03 1091 1564.08 1090.95 1564.11 1090.89C1564.15 1090.83 1564.17 1090.77 1564.17 1090.7C1564.17 1090.64 1564.15 1090.57 1564.11 1090.51C1564.08 1090.46 1564.03 1090.41 1563.97 1090.38L1562.67 1089.67C1562.61 1089.64 1562.56 1089.59 1562.52 1089.53L1561.81 1088.24C1561.78 1088.18 1561.73 1088.13 1561.67 1088.1C1561.61 1088.07 1561.55 1088.05 1561.48 1088.05C1561.41 1088.05 1561.35 1088.07 1561.29 1088.1C1561.23 1088.13 1561.18 1088.18 1561.15 1088.24L1560.44 1089.53C1560.4 1089.59 1560.35 1089.64 1560.29 1089.67L1558.99 1090.38C1558.93 1090.41 1558.88 1090.46 1558.85 1090.51C1558.81 1090.57 1558.79 1090.64 1558.79 1090.7C1558.79 1090.77 1558.81 1090.84 1558.85 1090.89C1558.88 1090.95 1558.93 1091 1558.99 1091.03L1560.29 1091.73C1560.35 1091.77 1560.4 1091.82 1560.44 1091.88L1561.15 1093.17C1561.29 1093.42 1561.67 1093.42 1561.81 1093.17L1562.52 1091.88C1562.56 1091.82 1562.61 1091.77 1562.67 1091.73" fill="#7B63AB"/>
</g>
<g style="mix-blend-mode:lighten">
<path fill-rule="evenodd" clip-rule="evenodd" d="M1538.6 1274.8L1539.85 1274.13C1539.9 1274.1 1539.95 1274.05 1539.98 1274C1540.01 1273.94 1540.03 1273.88 1540.03 1273.82C1540.03 1273.75 1540.01 1273.69 1539.98 1273.63C1539.95 1273.58 1539.9 1273.53 1539.85 1273.5L1538.6 1272.83C1538.54 1272.8 1538.49 1272.75 1538.46 1272.69L1537.78 1271.46C1537.75 1271.41 1537.7 1271.36 1537.65 1271.33C1537.59 1271.29 1537.53 1271.28 1537.47 1271.28C1537.4 1271.28 1537.34 1271.29 1537.28 1271.33C1537.23 1271.36 1537.18 1271.41 1537.15 1271.46L1536.47 1272.69C1536.44 1272.75 1536.39 1272.8 1536.33 1272.83L1535.08 1273.5C1535.03 1273.53 1534.98 1273.58 1534.95 1273.63C1534.91 1273.69 1534.9 1273.75 1534.9 1273.81C1534.9 1273.88 1534.91 1273.94 1534.95 1274C1534.98 1274.05 1535.03 1274.1 1535.08 1274.13L1536.33 1274.8C1536.39 1274.83 1536.44 1274.88 1536.47 1274.94L1537.15 1276.17C1537.18 1276.22 1537.23 1276.27 1537.28 1276.3C1537.34 1276.34 1537.4 1276.35 1537.46 1276.35C1537.53 1276.35 1537.59 1276.34 1537.65 1276.3C1537.7 1276.27 1537.75 1276.22 1537.78 1276.17L1538.46 1274.94C1538.49 1274.88 1538.54 1274.83 1538.6 1274.8" fill="#D15D64"/>
</g>
<g style="mix-blend-mode:lighten">
<path fill-rule="evenodd" clip-rule="evenodd" d="M1587.52 1180.51L1588.82 1179.81C1588.88 1179.78 1588.93 1179.73 1588.96 1179.67C1589 1179.62 1589.02 1179.55 1589.02 1179.48C1589.02 1179.42 1589 1179.35 1588.96 1179.29C1588.93 1179.24 1588.88 1179.19 1588.82 1179.16L1587.52 1178.46C1587.46 1178.42 1587.41 1178.37 1587.37 1178.31L1586.66 1177.02C1586.63 1176.96 1586.58 1176.91 1586.52 1176.88C1586.46 1176.85 1586.4 1176.83 1586.33 1176.83C1586.26 1176.83 1586.2 1176.85 1586.14 1176.88C1586.08 1176.91 1586.03 1176.96 1586 1177.02L1585.29 1178.31C1585.25 1178.37 1585.2 1178.42 1585.14 1178.46L1583.84 1179.16C1583.78 1179.19 1583.73 1179.24 1583.7 1179.29C1583.66 1179.35 1583.64 1179.42 1583.64 1179.48C1583.64 1179.55 1583.66 1179.62 1583.7 1179.67C1583.73 1179.73 1583.78 1179.78 1583.84 1179.81L1585.14 1180.51C1585.2 1180.55 1585.25 1180.6 1585.29 1180.66L1586 1181.95C1586.14 1182.2 1586.52 1182.2 1586.66 1181.95L1587.37 1180.66C1587.41 1180.6 1587.46 1180.55 1587.52 1180.51" fill="#FCD05C"/>
</g>
<mask id="mask2_0_65" style="mask-type:alpha" maskUnits="userSpaceOnUse" x="1515" y="925" width="6" height="7">
<path d="M1520.78 931.199V925.889H1515.41V931.2H1520.78V931.199Z" fill="white"/>
</mask>
<g mask="url(#mask2_0_65)">
<path fill-rule="evenodd" clip-rule="evenodd" d="M1519.29 929.572L1520.59 928.87C1520.65 928.838 1520.7 928.791 1520.73 928.734C1520.77 928.676 1520.78 928.61 1520.78 928.544C1520.78 928.477 1520.77 928.411 1520.73 928.353C1520.7 928.296 1520.65 928.249 1520.59 928.217L1519.29 927.515C1519.22 927.481 1519.17 927.43 1519.14 927.368L1518.43 926.083C1518.39 926.024 1518.35 925.975 1518.29 925.941C1518.23 925.907 1518.16 925.889 1518.1 925.889C1518.03 925.889 1517.96 925.907 1517.9 925.941C1517.85 925.975 1517.8 926.024 1517.77 926.083L1517.05 927.368C1517.02 927.43 1516.97 927.481 1516.91 927.515L1515.61 928.217C1515.55 928.249 1515.5 928.296 1515.46 928.354C1515.43 928.411 1515.41 928.477 1515.41 928.544C1515.41 928.61 1515.43 928.676 1515.46 928.733C1515.5 928.791 1515.55 928.838 1515.61 928.87L1516.91 929.573C1516.97 929.607 1517.02 929.659 1517.06 929.721L1517.77 931.006C1517.8 931.065 1517.85 931.114 1517.91 931.148C1517.96 931.182 1518.03 931.2 1518.1 931.2C1518.17 931.2 1518.23 931.182 1518.29 931.148C1518.35 931.114 1518.4 931.065 1518.43 931.006L1519.14 929.721C1519.17 929.659 1519.23 929.608 1519.29 929.574" fill="#7B63AB"/>
</g>
<path fill-rule="evenodd" clip-rule="evenodd" d="M1110.53 864.204L1113.19 861.579L1110.53 864.204ZM1102.88 871.76L1105.54 869.134L1102.88 871.76ZM1108.24 862.227C1108.24 861.285 1103 866.464 1103.96 866.464C1103 866.464 1108.24 871.643 1108.24 870.701C1108.24 871.642 1113.48 866.463 1112.53 866.463C1113.48 866.463 1108.24 861.284 1108.24 862.226L1108.24 862.227Z" stroke="#7B63AB" stroke-width="1.097" stroke-linecap="round" stroke-linejoin="round"/>
<g style="mix-blend-mode:lighten">
<path fill-rule="evenodd" clip-rule="evenodd" d="M1321.74 728.03L1324.37 726.607C1324.43 726.575 1324.48 726.528 1324.51 726.47C1324.55 726.413 1324.57 726.347 1324.57 726.28C1324.57 726.213 1324.55 726.148 1324.51 726.09C1324.48 726.033 1324.43 725.985 1324.37 725.953L1321.74 724.531C1321.67 724.497 1321.62 724.446 1321.59 724.384L1320.15 721.782C1320.12 721.723 1320.07 721.673 1320.01 721.639C1319.95 721.605 1319.89 721.586 1319.82 721.586C1319.75 721.586 1319.68 721.605 1319.63 721.639C1319.57 721.673 1319.52 721.723 1319.49 721.782L1318.05 724.384C1318.01 724.447 1317.96 724.498 1317.9 724.532L1315.26 725.955C1315.2 725.987 1315.16 726.034 1315.12 726.092C1315.09 726.149 1315.07 726.214 1315.07 726.281C1315.07 726.348 1315.09 726.413 1315.12 726.471C1315.16 726.528 1315.2 726.575 1315.26 726.607L1317.9 728.031C1317.96 728.065 1318.01 728.117 1318.05 728.179L1319.49 730.781C1319.63 731.039 1320.01 731.039 1320.15 730.781L1321.59 728.179C1321.62 728.115 1321.68 728.063 1321.74 728.029" fill="#FCD05C"/>
</g>
<g style="mix-blend-mode:lighten">
<path fill-rule="evenodd" clip-rule="evenodd" d="M1215.55 909.282L1216.79 908.611C1216.85 908.58 1216.89 908.535 1216.93 908.48C1216.96 908.426 1216.98 908.363 1216.98 908.3C1216.98 908.236 1216.96 908.173 1216.93 908.119C1216.89 908.064 1216.85 908.019 1216.79 907.988L1215.55 907.315C1215.49 907.283 1215.44 907.233 1215.41 907.174L1214.73 905.946C1214.7 905.89 1214.65 905.844 1214.59 905.811C1214.54 905.779 1214.48 905.762 1214.41 905.762C1214.35 905.762 1214.28 905.779 1214.23 905.811C1214.17 905.844 1214.13 905.89 1214.1 905.946L1213.42 907.174C1213.38 907.233 1213.33 907.283 1213.27 907.315L1212.03 907.986C1211.97 908.017 1211.93 908.062 1211.89 908.117C1211.86 908.172 1211.84 908.235 1211.84 908.299C1211.84 908.363 1211.86 908.425 1211.89 908.48C1211.93 908.535 1211.97 908.581 1212.03 908.611L1213.27 909.282C1213.33 909.315 1213.38 909.364 1213.42 909.423L1214.09 910.651C1214.13 910.708 1214.17 910.755 1214.23 910.788C1214.28 910.821 1214.35 910.838 1214.41 910.838C1214.48 910.838 1214.54 910.821 1214.59 910.788C1214.65 910.755 1214.7 910.708 1214.73 910.651L1215.41 909.423C1215.44 909.364 1215.49 909.315 1215.55 909.282" fill="#D15D64"/>
</g>
<g style="mix-blend-mode:lighten">
<path fill-rule="evenodd" clip-rule="evenodd" d="M1425.99 825.386L1427.29 824.683C1427.35 824.651 1427.4 824.604 1427.44 824.546C1427.47 824.489 1427.49 824.423 1427.49 824.356C1427.49 824.29 1427.47 824.224 1427.44 824.167C1427.4 824.109 1427.35 824.062 1427.29 824.03L1425.99 823.328C1425.93 823.294 1425.88 823.242 1425.84 823.181L1425.13 821.896C1425.1 821.837 1425.05 821.788 1425 821.754C1424.94 821.72 1424.87 821.702 1424.8 821.702C1424.74 821.702 1424.67 821.72 1424.61 821.754C1424.55 821.788 1424.5 821.837 1424.47 821.896L1423.76 823.181C1423.73 823.243 1423.68 823.295 1423.61 823.33L1422.31 824.031C1422.25 824.063 1422.2 824.11 1422.17 824.168C1422.14 824.225 1422.12 824.291 1422.12 824.357C1422.12 824.424 1422.14 824.49 1422.17 824.547C1422.2 824.605 1422.25 824.652 1422.31 824.684L1423.61 825.388C1423.68 825.423 1423.73 825.473 1423.76 825.535L1424.47 826.82C1424.62 827.078 1424.99 827.078 1425.13 826.82L1425.84 825.535C1425.88 825.473 1425.93 825.422 1425.99 825.388" fill="#FCD05C"/>
</g>
<path fill-rule="evenodd" clip-rule="evenodd" d="M1634.3 766.922L1635.98 767.434L1637.67 766.922L1637.15 768.587L1637.67 770.251L1635.98 769.738L1634.3 770.252L1634.82 768.587L1634.3 766.922Z" stroke="#00A959" stroke-width="1.097" stroke-linecap="round" stroke-linejoin="round"/>
<g opacity="0.5">
<path opacity="0.5" fill-rule="evenodd" clip-rule="evenodd" d="M489.806 383.22C493.912 386.632 494.442 392.687 490.989 396.746C489.837 398.099 488.329 399.112 486.631 399.672C484.933 400.232 483.112 400.317 481.369 399.919C480.266 401.48 479.639 403.094 479.935 404.572C480.086 405.323 479.575 405.252 479.31 404.912C477.984 403.21 476.448 400.537 476.555 397.225C473.143 393.733 472.887 388.187 476.118 384.39C479.572 380.331 485.699 379.809 489.805 383.22" fill="#DBE7F0"/>
<path opacity="0.5" fill-rule="evenodd" clip-rule="evenodd" d="M486.999 389.445H485.838L485.849 388.887C485.849 388.151 485.177 386.04 484.126 386.04C483.791 386.04 483.454 386.21 483.23 386.474C483.132 386.582 483.059 386.709 483.017 386.848C482.975 386.987 482.966 387.134 482.99 387.277C483.133 388.118 483.15 388.571 482.626 389.138C482.053 389.756 481.776 390.016 481.254 390.016H480.104C479.495 390.012 478.957 390.545 478.957 391.148V393.418C478.957 394.021 479.495 394.553 480.104 394.553H481.092L481.921 395.042C482.012 395.094 482.114 395.121 482.219 395.121H485.854C486.504 395.121 487.486 394.838 487.576 394.054L488.14 390.677C488.152 390.632 488.152 390.598 488.152 390.564C488.133 389.899 487.669 389.446 487.003 389.446H486.997L486.999 389.445ZM486.999 393.986C486.97 394.377 486.268 394.552 485.849 394.552H482.214L481.254 393.986V390.579C482.035 390.579 482.466 390.154 483.051 389.512C483.758 388.74 483.706 388.057 483.557 387.168C483.511 386.884 483.844 386.601 484.131 386.601C484.609 386.601 485.28 388.15 485.28 388.87L485.268 389.456C485.268 389.848 485.459 390.007 485.854 390.007H487.003C487.366 390.007 487.567 390.212 487.576 390.573L487.003 393.98L486.997 393.986H486.999Z" fill="#27363A"/>
<path opacity="0.5" fill-rule="evenodd" clip-rule="evenodd" d="M515.914 421.759C515.914 417.496 514.415 413.58 511.913 410.492C509.889 408.393 507.677 409.703 507.067 419.493C506.335 431.234 500.08 423.393 495.095 428.923C490.122 434.443 478.542 424.407 481.532 430.274C484.61 435.95 490.669 439.813 497.644 439.813C507.733 439.813 515.914 431.73 515.914 421.759Z" fill="#4D595D"/>
<path opacity="0.5" fill-rule="evenodd" clip-rule="evenodd" d="M497.643 403.706C507.733 403.706 515.913 411.789 515.913 421.759C515.913 431.73 507.734 439.813 497.644 439.813C487.554 439.813 479.375 431.73 479.375 421.759C479.375 411.789 487.554 403.706 497.644 403.706H497.643Z" stroke="#DBE7F0" stroke-width="1.097" stroke-linecap="round" stroke-linejoin="round"/>
<path opacity="0.5" fill-rule="evenodd" clip-rule="evenodd" d="M497.643 403.706C507.733 403.706 515.913 411.789 515.913 421.759C515.913 431.73 507.734 439.813 497.644 439.813C487.554 439.813 479.375 431.73 479.375 421.759C479.375 411.789 487.554 403.706 497.644 403.706H497.643Z" stroke="#DBE7F0" stroke-width="1.097" stroke-linecap="round" stroke-linejoin="round"/>
<path opacity="0.5" d="M490.557 438.405C491.873 435.08 494.559 430.408 499.783 427.778C506.024 424.636 510.495 427.239 515.128 427.009M480.815 414.721C484.313 416.237 488.576 417.693 492.048 417.693C499.29 417.693 500.936 413.301 509.493 413.139C511.037 413.111 512.428 413.092 513.666 413.082L480.815 414.721Z" stroke="#DBE7F0" stroke-width="1.097" stroke-linecap="round" stroke-linejoin="round"/>
<path opacity="0.5" d="M492.923 439.205C496.096 435.877 503.867 429.146 513.087 431.407H513.089M482.264 431.51C485.082 431.128 489.714 429.921 493.529 426.151C499.455 420.295 501.099 420.135 504.721 420.135C507.687 420.135 512.09 423.189 515.847 423.311L482.264 431.51ZM490.265 405.238C494.069 405.82 498.663 406.998 501.594 409.398C503.883 411.273 507.833 411.143 511.767 410.307L490.265 405.238ZM486.478 407.469C487.88 407.77 489.172 408.095 490.011 408.364C492.78 409.248 495.223 409.57 494.517 411.512C493.621 413.977 489.477 412.585 486.709 411.7C485.801 411.411 484.665 410.879 483.555 410.267L486.478 407.469ZM479.494 419.684C483.147 420.2 488.234 421.414 488.756 424.199C489.115 426.126 485.076 427.206 480.427 427.814L479.494 419.684Z" stroke="#DBE7F0" stroke-width="1.097" stroke-linecap="round" stroke-linejoin="round"/>
</g>
</g>
<defs>
<clipPath id="clip0_0_65">
<rect width="1686" height="3203" fill="white" transform="translate(-2)"/>
</clipPath>
</defs>
</svg>
